<?xml version="1.0" standalone="no"?>
<!DOCTYPE svg PUBLIC "-//W3C//DTD SVG 20010904//EN"
 "http://www.w3.org/TR/2001/REC-SVG-20010904/DTD/svg10.dtd">
<svg version="1.0" xmlns="http://www.w3.org/2000/svg"
 width="2138.000000pt" height="2048.000000pt" viewBox="0 0 2138.000000 2048.000000"
 preserveAspectRatio="xMidYMid meet">

<g transform="translate(0.000000,2048.000000) scale(0.100000,-0.100000)"
fill="#000000" stroke="none">
<path d="M15635 19679 c-1017 -440 -2939 -1271 -4270 -1846 -1331 -576 -3005
-1299 -3720 -1608 l-1300 -562 -100 67 c-685 458 -2538 1581 -3193 1935 -545
294 -1216 519 -1721 576 -135 15 -460 6 -556 -15 -238 -53 -404 -141 -536
-284 -310 -336 -317 -927 -17 -1515 116 -227 316 -485 501 -646 113 -98 200
-160 377 -268 69 -42 440 -270 825 -506 1326 -814 1995 -1220 2585 -1569 223
-132 408 -243 412 -246 4 -4 367 -2705 808 -6002 440 -3297 803 -6004 805
-6015 4 -14 292 -189 978 -595 534 -316 983 -576 997 -578 l25 -4 514 5394
c282 2966 516 5405 520 5419 6 27 18 21 3211 -1617 1763 -904 3208 -1649 3212
-1656 4 -7 82 -785 173 -1728 92 -943 169 -1732 172 -1752 l5 -37 650 -386
c358 -212 652 -385 653 -383 1 2 225 855 497 1896 310 1184 501 1897 511 1905
8 7 625 637 1371 1400 1233 1263 1356 1392 1356 1421 l0 32 -621 335 c-342
183 -634 340 -648 347 -26 13 -100 -21 -1622 -743 -876 -416 -1597 -757 -1600
-758 -6 -2 -55 29 -854 525 -269 167 -1568 974 -2885 1792 -1317 819 -2396
1489 -2397 1490 -1 1 998 740 2220 1643 1222 903 2276 1682 2342 1731 155 114
3378 2496 3845 2840 195 145 356 266 357 270 2 5 -1996 1089 -2025 1099 -4 1
-839 -358 -1857 -798z"/>
</g>
</svg>
