<?xml version="1.0" encoding="UTF-8" standalone="no"?>
<svg xmlns="http://www.w3.org/2000/svg" xmlns:xlink="http://www.w3.org/1999/xlink" width="500" height="500" viewBox="0 0 500.00001 500.00001">
  <defs>
    <path id="a" d="M62.986 30.742H37.109c-2.21 0-4.002 1.793-4.002 4.002v22.875c0 2.21 1.792 4.002 4.002 4.002h1.232v28.29h22.942v-28.29h1.703c2.209 0 4-1.792 4-4.002V34.744c0-2.209-1.791-4.002-4-4.002z"/>
    <path id="b" fill="none" d="M100 0v100H0"/>
  </defs>
  <g transform="translate(495.53909 -307.46301)">
    <rect width="476.19049" height="476.19049" x="-483.63434" y="319.36777" fill="#fff" stroke="#64dcff" stroke-linejoin="round" stroke-width="23.80952263" ry="39.815994"/>
    <path fill-rule="evenodd" stroke="#000" stroke-linejoin="round" stroke-width="1.1196363" d="m-441.35165 413.08672 25.5207-11.27724 16.7104-1.9286 14.6354-1.10128 21.0948 3.40449 37.2218 6.80547 8.7038-.23761 21.575 3.23173 5.3941-1.5685 11.9061-3.87527-4.8614-2.5506.4361-15.96043 2.6995-2.89255 20.0968.42554 15.06 1.83051 52.151-23.852 18.6064-5.53756 13.0728 1.91793-41.076 35.48619 1.6696 2.546-21.9729 30.70778 71.536 13.59707 6.6117-2.32168 68.599299-47.30245 8.6614-2.94113 21.2003 4.48131-26.3289 36.31866-1.6208 2.11076 20.4429 2.35017-27.6171 28.58608 10.9277 2.59983-3.2455 9.48698-10.7582.87884 16.9583 20.82643-21.2267-4.47126-25.734799-13.63987-71.3329 1.60016-12.0398-.56402-47.7429-.15264 5.4068 5.51673 11.7733 8.31441 7.8122 4.93538-3.8556 2.70459 10.8657 7.83397 23.3127 13.282 2.4454 2.76351-3.2522.44864-19.874-2.81727-29.474-15.4046-12.6885-.14735 3.0719 3.76871-9.685 1.75587-5.7529 2.56119-15.7229-.30656-10.2082-3.48674 2.0256-19.24068 15.981-.86593-8.4876-6.4167-10.8135-.65685 5.5612 4.80281-6.6545 1.02728-6.3409 3.56837-5.1694 1.31771-19.3612-2.60109-6.4366-3.47448 2.0407-18.20551 20.5861-.82912-49.6973-20.77956-68.212-12.41116-15.1168-9.73883-3.6412-5.81727 3.6277-8.41865z"/>
    <g fill-rule="evenodd" transform="translate(4195.7487 -1381.5282) scale(1.93798)">
      <path d="M-2361.7602 1002.0259v16h-13v8.9995h.031l6.3125 10.3125 13.5313.031 7.0625-10.3437h.062v-9.0001h-12v-16h-2z"/>
      <path fill="#c6c6de" d="M-2386.7602 1073.0131h112v30h-112v-30z"/>
      <path fill="#efe7ff" d="M-2318.7602 1065.0131h30v7h-30v-7zm-55-26h25v33h-25v-33z"/>
      <path d="M-2374.7602 1037.0259v34h-13.0313v30h-6.9687v4h129v-4h-7.8438v-30h-13.1562v-8h-34v8h-27v-34h-27zm3 3h21v5h-21v-5zm0 9h21v4h-21v-4zm0 8h21v14h-21v-14zm54 9h28v5h-28v-5zm-67.9063 8h109.9063v27h-17v-14h-10v14h-82.9063v-27zm3.9063 5v3h23v-3h-23zm27 0v3h23v-3h-23zm26 0v3h23v-3h-23zm26 0v3h23v-3h-23zm-79 8v10h23v-10h-23zm27 0v10h23v-10h-23zm26 0v10h23v-10h-23zm39 0v10h10v-10h-10z"/>
      <path fill="#efe7ff" d="M-2371.7602 1022.0131h21v4h-21v-4z"/>
    </g>
    <g transform="translate(3782.828 33.287239) scale(1.95013)">
      <g transform="translate(-2036.25 282.06)">
        <circle cx="50.047001" cy="18.215" r="9.0740004"/>
        <use xlink:href="#a"/>
        <use xlink:href="#b"/>
      </g>
      <g transform="translate(-2106.3261 282.06)">
        <circle cx="50.047001" cy="18.215" r="9.0740004"/>
        <use xlink:href="#a"/>
        <use xlink:href="#b"/>
      </g>
      <g transform="translate(-2141.3643 282.06)">
        <circle cx="50.047001" cy="18.215" r="9.0740004"/>
        <use xlink:href="#a"/>
        <use xlink:href="#b"/>
      </g>
      <g transform="translate(-2071.2881 282.06)">
        <circle cx="50.047001" cy="18.215" r="9.0740004"/>
        <use xlink:href="#a"/>
        <use xlink:href="#b"/>
      </g>
    </g>
  </g>
</svg>